#!OML:ASF H:\Pregnant\Project 1\Capture day 1\Session 1\femalepreg.ASF
:FULLY-SPECIFIED
:DEGREES
2311
root 1.63361 14.4566 25.0653 -119.024 6.80653 179.735
lowerback 12.3531 0.794633 -4.549
upperback -4.20323 0.519771 1.80193
thorax -11.6343 0.6788 4.4323
lowerneck -35.1031 3.56455 1.41135
upperneck 23.1723 5.0674 -2.47329
head 13.7017 1.92458 -0.157223
rclavicle -1.03368e-014 -2.82274e-014
rhumerus -3.21853 23.2199 -68.9564
rradius 33.6249
rwrist 0.438381
rhand -2.10579 -15.4877
rfingers 7.12502
rthumb 23.5719 -44.0631
lclavicle -1.03368e-014 -2.82274e-014
lhumerus -7.80483 -41.7733 73.934
lradius 42.6141
lwrist 31.0586
lhand -15.3205 -357.839
lfingers 7.12502
lthumb 10.8556 31.8608
rfemur -77.5558 -23.2774 6.58213
rtibia 29.3459
rfoot 1.54714 12.8765
rtoes 54.2253
lfemur -114.685 24.7742 -93.9301
ltibia 12.4753
lfoot 63.1952 -57.8468
ltoes 19.3854
2312
root 1.63089 14.4645 25.0659 -119.638 6.7005 179.61
lowerback 11.9769 0.734385 -4.48035
upperback -4.16182 0.469924 1.82052
thorax -11.3547 0.642393 4.42096
lowerneck -34.715 3.58891 1.44421
upperneck 23.4012 5.11683 -2.49896
head 13.7324 1.94809 -0.164655
rclavicle -3.97569e-016 -1.5704e-014
rhumerus -4.38355 22.5917 -69.2475
rradius 33.3475
rwrist 0.341582
rhand -1.91625 -15.6863
rfingers 7.12502
rthumb 23.7537 -44.2382
lclavicle -3.97569e-016 -1.5704e-014
lhumerus -9.22918 -41.5958 74.8389
lradius 42.6414
lwrist 30.9909
lhand -14.8918 -357.781
lfingers 7.12502
lthumb 11.2691 31.8958
rfemur -75.8681 -21.8742 3.7537
rtibia 29.4835
rfoot -1.24168 11.8838
rtoes 53.7961
lfemur -114.537 25.0775 -94.5941
ltibia 12.1249
lfoot 65.4641 -56.9666
ltoes 21.5815
2313
root 1.62812 14.4721 25.0659 -120.236 6.61166 179.494
lowerback 11.5781 0.682224 -4.41804
upperback -4.1303 0.428695 1.82383
thorax -11.0745 0.610244 4.39398
lowerneck -34.3195 3.60578 1.48364
upperneck 23.6513 5.14959 -2.50321
head 13.7693 1.969 -0.167976
rclavicle 2.50469e-014 3.18055e-014
rhumerus -5.5394 21.9457 -69.5158
rradius 33.1083
rwrist 0.26242
rhand -1.73834 -15.874
rfingers 7.12502
rthumb 23.9243 -44.4036
lclavicle 2.50469e-014 3.18055e-014
lhumerus -10.6162 -41.3867 75.6879
lradius 42.6931
lwrist 30.9417
lhand -14.4971 -357.672
lfingers 7.12502
lthumb 11.6498 31.9844
rfemur -74.2954 -20.3508 1.00904
rtibia 29.6114
rfoot -3.99937 10.8011
rtoes 53.3343
lfemur -114.432 25.3774 -95.2836
ltibia 11.7863
lfoot 67.6342 -56.0149
ltoes 23.7654
2314
root 1.62552 14.4799 25.0649 -120.848 6.52201 179.388
lowerback 11.1852 0.631544 -4.35547
upperback -4.09215 0.388345 1.82562
thorax -10.7912 0.578251 4.36463
lowerneck -33.9281 3.62197 1.52468
upperneck 23.9106 5.17872 -2.49161
head 13.8097 1.99158 -0.165817
rclavicle 3.18055e-015 2.3059e-014
rhumerus -6.6606 21.3226 -69.7477
rradius 32.8987
rwrist 0.216526
rhand -1.64017 -16.0264
rfingers 7.12502
rthumb 24.0185 -44.5436
lclavicle 3.18055e-015 2.3059e-014
lhumerus -11.9531 -41.1222 76.4743
lradius 42.7742
lwrist 30.9098
lhand -14.1681 -357.511
lfingers 7.12502
lthumb 11.967 32.1267
rfemur -72.7961 -18.7091 -1.65888
rtibia 29.7267
rfoot -6.7295 9.63089
rtoes 52.8605
lfemur -114.378 25.7017 -95.9751
ltibia 11.5065
lfoot 69.6932 -55.0012
ltoes 25.9454
2315
root 1.62295 14.4876 25.0637 -121.464 6.42654 179.284
lowerback 10.8042 0.582791 -4.28265
upperback -4.06344 0.350309 1.81903
thorax -10.5263 0.547248 4.31972
lowerneck -33.4991 3.6336 1.58147
upperneck 24.1654 5.19462 -2.4721
head 13.8406 2.0128 -0.166196
rclavicle 0 1.37161e-014
rhumerus -7.79022 20.7151 -69.9599
rradius 32.7448
rwrist 0.206965
rhand -1.59691 -16.1659
rfingers 7.12502
rthumb 24.06 -44.6776
lclavicle 0 1.37161e-014
lhumerus -13.2607 -40.8188 77.2084
lradius 42.8909
lwrist 30.9205
lhand -13.8571 -357.262
lfingers 7.12502
lthumb 12.2669 32.3582
rfemur -71.3891 -16.9746 -4.2326
rtibia 29.8327
rfoot -9.41734 8.38398
rtoes 52.3688
lfemur -114.374 26.0345 -96.6644
ltibia 11.2906
lfoot 71.6438 -53.9379
ltoes 28.0959
2316
root 1.62225 14.4979 25.0638 -122.082 6.32383 179.185
lowerback 10.4265 0.532625 -4.20767
upperback -4.03741 0.309914 1.8117
thorax -10.2668 0.515365 4.27303
lowerneck -33.0457 3.64169 1.63716
upperneck 24.4168 5.20428 -2.43578
head 13.8642 2.0352 -0.161215
rclavicle 1.55052e-014 4.65156e-014
rhumerus -8.91461 20.1389 -70.149
rradius 32.6675
rwrist 0.208227
rhand -1.578 -16.3415
rfingers 7.12502
rthumb 24.0781 -44.8508
lclavicle 1.55052e-014 4.65156e-014
lhumerus -14.5265 -40.466 77.8823
lradius 43.0379
lwrist 30.9721
lhand -13.5434 -356.971
lfingers 7.12502
lthumb 12.5693 32.6309
rfemur -70.084 -15.1389 -6.71162
rtibia 29.9297
rfoot -12.0721 7.05072
rtoes 51.8489
lfemur -114.028 26.5244 -97.3193
ltibia 11.1351
lfoot 70.5642 -58.525
ltoes 21.243
2317
root 1.62169 14.5077 25.064 -122.689 6.21413 179.09
lowerback 10.0317 0.480479 -4.12886
upperback -4.01672 0.267588 1.80344
thorax -10.0035 0.482591 4.22313
lowerneck -32.5614 3.64615 1.69319
upperneck 24.6654 5.20839 -2.38568
head 13.8796 2.05892 -0.152249
rclavicle 3.57812e-015 3.10104e-014
rhumerus -10.0324 19.609 -70.3158
rradius 32.6643
rwrist 0.210888
rhand -1.57511 -16.548
rfingers 7.12502
rthumb 24.0809 -45.057
lclavicle 3.57812e-015 3.10104e-014
lhumerus -15.7475 -40.0688 78.4968
lradius 43.2108
lwrist 31.0572
lhand -13.2264 -356.622
lfingers 7.12502
lthumb 12.8749 32.9612
rfemur -68.8907 -13.2233 -9.10531
rtibia 30.022
rfoot -14.6958 5.63551
rtoes 51.2944
lfemur -113.741 27.0391 -97.9674
ltibia 11.0357
lfoot 68.8355 -63.2959
ltoes 13.2731
2318
root 1.62126 14.5169 25.0646 -123.259 6.10759 179.005
lowerback 9.5872 0.423575 -4.06005
upperback -4.00118 0.219654 1.80041
thorax -9.7168 0.447866 4.18484
lowerneck -32.0598 3.65481 1.75208
upperneck 24.9102 5.22135 -2.33663
head 13.8896 2.08786 -0.142544
rclavicle 1.19271e-014 -2.5842e-015
rhumerus -11.1337 19.1613 -70.4558
rradius 32.75
rwrist 0.188981
rhand -1.60165 -16.7604
rfingers 7.12502
rthumb 24.0554 -45.2727
lclavicle 1.19271e-014 -2.5842e-015
lhumerus -16.9162 -39.6129 79.0484
lradius 43.4047
lwrist 31.1647
lhand -12.9181 -356.274
lfingers 7.12502
lthumb 13.1722 33.2904
rfemur -67.8416 -11.2374 -11.4177
rtibia 30.1069
rfoot -17.2881 4.11334
rtoes 50.6667
lfemur -113.531 27.5501 -98.6232
ltibia 10.9881
lfoot 66.0892 -68.1527
ltoes 4.50782
2319
root 1.62073 14.5256 25.0643 -123.808 6.0161 178.93
lowerback 9.10469 0.367378 -4.00556
upperback -3.98839 0.171942 1.79797
thorax -9.41166 0.414069 4.15452
lowerneck -31.5384 3.66472 1.816
upperneck 25.1593 5.23984 -2.29092
head 13.8974 2.12058 -0.134045
rclavicle 1.66979e-014 4.37326e-015
rhumerus -12.1881 18.8384 -70.5546
rradius 32.8878
rwrist 0.0942473
rhand -1.62878 -16.9654
rfingers 7.12502
rthumb 24.0294 -45.4812
lclavicle 1.66979e-014 4.37326e-015
lhumerus -18.0405 -39.1187 79.5471
lradius 43.6116
lwrist 31.2722
lhand -12.6649 -355.951
lfingers 7.12502
lthumb 13.4162 33.5973
rfemur -66.9191 -9.17626 -13.6687
rtibia 30.1861
rfoot -19.846 2.47857
rtoes 49.9513
lfemur -113.372 28.0814 -99.2995
ltibia 10.9403
lfoot 61.6262 -72.9346
ltoes -4.46191
2320
root 1.6189 14.5326 25.0655 -124.24 5.9415 178.86
lowerback 8.47584 0.304143 -3.95312
upperback -3.99964 0.120554 1.79066
thorax -9.04706 0.378314 4.11897
lowerneck -31.0184 3.67792 1.889
upperneck 25.4198 5.26601 -2.25192
head 13.9103 2.15751 -0.128026
rclavicle -1.47101e-014 -9.74045e-015
rhumerus -13.18 18.6394 -70.6189
rradius 33.0553
rwrist -0.0845427
rhand -1.67278 -17.1164
rfingers 7.12502
rthumb 23.9872 -45.6377
lclavicle -1.47101e-014 -9.74045e-015
lhumerus -19.108 -38.5987 79.9838
lradius 43.8316
lwrist 31.3676
lhand -12.5121 -355.665
lfingers 7.12502
lthumb 13.5635 33.8729
rfemur -66.2188 -7.11966 -15.8651
rtibia 30.2528
rfoot -22.3475 0.679091
rtoes 49.0919
lfemur -113.286 28.5067 -100.013
ltibia 10.8985
lfoot 53.9189 -77.4491
ltoes -12.9402
2321
root 1.61448 14.5372 25.0684 -124.516 5.89072 178.795
lowerback 7.65942 0.237536 -3.88345
upperback -4.05065 0.0740536 1.76552
thorax -8.61678 0.343943 4.05166
lowerneck -30.4886 3.69124 1.97856
upperneck 25.6941 5.29071 -2.21257
head 13.9269 2.19695 -0.124864
rclavicle -1.39149e-014 1.80894e-014
rhumerus -14.1369 18.5327 -70.6664
rradius 33.2503
rwrist -0.303732
rhand -1.72304 -17.22
rfingers 7.12502
rthumb 23.939 -45.7476
lclavicle -1.39149e-014 1.80894e-014
lhumerus -20.1287 -38.0892 80.362
lradius 44.0612
lwrist 31.4551
lhand -12.4767 -355.46
lfingers 7.12502
lthumb 13.5975 34.076
rfemur -65.766 -5.11585 -18.0319
rtibia 30.3022
rfoot -24.7675 -1.30932
rtoes 48.0602
lfemur -113.281 28.7785 -100.773
ltibia 10.8653
lfoot 39.3202 -81.3521
ltoes -20.3883
